<?xml version="1.0" encoding="UTF-8" standalone="no"?>
<!DOCTYPE svg PUBLIC "-//W3C//DTD SVG 1.1//EN" "http://www.w3.org/Graphics/SVG/1.1/DTD/svg11.dtd">
<svg width="100%" height="100%" viewBox="0 0 772 772" version="1.1" xmlns="http://www.w3.org/2000/svg" xmlns:xlink="http://www.w3.org/1999/xlink" xml:space="preserve" xmlns:serif="http://www.serif.com/" style="fill-rule:evenodd;clip-rule:evenodd;stroke-linejoin:round;stroke-miterlimit:2;">
    <g transform="matrix(0.5,-6.12323e-17,6.12323e-17,-1,1.13687e-13,772)">
        <rect x="0" y="0" width="1544" height="772" style="fill:url(#_Radial1);"/>
    </g>
    <g transform="matrix(1.48039,-0.231422,0.218176,1.39565,-329.03,260.931)">
        <g transform="matrix(9.21715,0,0,8.0623,327.775,206.025)">
            <path d="M21,3C21.552,3 22,3.448 22,4L22,20C22,20.552 21.552,21 21,21L3,21C2.448,21 2,20.552 2,20L2,4C2,3.448 2.448,3 3,3L21,3ZM20,5L4,5L4,19L20,19L20,5ZM18,7L18,9L6,9L6,7L18,7Z" style="fill:rgb(255,148,20);fill-rule:nonzero;"/>
        </g>
        <g transform="matrix(3.39101,-0.639445,0.724436,3.84172,383.387,277.764)">
            <path d="M15.387,13.498L17.94,20.512L13.242,22.222L10.689,15.208L6.79,17.653L8.409,1.633L19.946,12.865L15.387,13.498ZM15.377,19.316L12.662,11.857L15.621,11.446L9.982,5.956L9.191,13.786L11.722,12.199L14.437,19.658L15.377,19.316Z" style="fill:white;fill-rule:nonzero;"/>
        </g>
    </g>
    <g transform="matrix(1,0,0,1,-341.602,-134.633)">
        <path d="M434.102,302.8L438.402,302.8C443.336,302.8 446.869,302.167 449.002,300.9C451.136,299.633 452.203,297.6 452.203,294.8C452.203,292 451.136,289.967 449.002,288.7C446.869,287.433 443.336,286.8 438.402,286.8L434.102,286.8L434.102,302.8ZM434.102,272.2L437.703,272.2C443.836,272.2 446.902,269.767 446.902,264.9C446.902,260.033 443.836,257.6 437.703,257.6L434.102,257.6L434.102,272.2ZM414.502,242.6L443.703,242.6C450.636,242.6 455.902,244.267 459.502,247.6C463.102,250.933 464.902,255.733 464.902,262C464.902,265.8 464.219,268.95 462.852,271.45C461.486,273.95 459.402,276.067 456.602,277.8C459.402,278.333 461.786,279.15 463.752,280.25C465.719,281.35 467.319,282.7 468.552,284.3C469.786,285.9 470.669,287.7 471.203,289.7C471.736,291.7 472.002,293.833 472.002,296.1C472.002,299.633 471.386,302.767 470.152,305.5C468.919,308.233 467.186,310.533 464.953,312.4C462.719,314.267 460.002,315.667 456.802,316.6C453.602,317.533 450.002,318 446.002,318L414.502,318L414.502,242.6Z" style="fill:rgb(255,148,20);fill-rule:nonzero;"/>
        <path d="M482.002,266.7L500.102,266.7L500.102,275.1C502.036,272.033 504.402,269.683 507.202,268.05C510.002,266.417 513.269,265.6 517.002,265.6L518.553,265.6C519.119,265.6 519.769,265.667 520.502,265.8L520.502,283.1C518.102,281.9 515.502,281.3 512.703,281.3C508.502,281.3 505.352,282.55 503.252,285.05C501.152,287.55 500.102,291.2 500.102,296L500.102,318L482.002,318L482.002,266.7Z" style="fill:rgb(255,148,20);fill-rule:nonzero;"/>
        <path d="M566.703,284.9C566.103,282.367 564.869,280.333 563.002,278.8C561.136,277.267 558.869,276.5 556.203,276.5C553.402,276.5 551.119,277.233 549.353,278.7C547.586,280.167 546.469,282.233 546.002,284.9L566.703,284.9ZM545.502,295.4C545.502,303.2 549.169,307.1 556.502,307.1C560.436,307.1 563.402,305.5 565.402,302.3L582.902,302.3C579.369,314.033 570.536,319.9 556.402,319.9C552.069,319.9 548.103,319.25 544.502,317.95C540.902,316.65 537.819,314.8 535.252,312.4C532.686,310 530.703,307.133 529.302,303.8C527.902,300.467 527.203,296.733 527.203,292.6C527.203,288.333 527.869,284.483 529.203,281.05C530.536,277.617 532.436,274.7 534.902,272.3C537.369,269.9 540.353,268.05 543.853,266.75C547.353,265.45 551.302,264.8 555.703,264.8C560.036,264.8 563.936,265.45 567.402,266.75C570.869,268.05 573.802,269.933 576.203,272.4C578.603,274.867 580.436,277.883 581.703,281.45C582.969,285.017 583.603,289.033 583.603,293.5L583.603,295.4L545.502,295.4Z" style="fill:rgb(255,148,20);fill-rule:nonzero;"/>
        <path d="M610.702,292.2C610.702,293.867 611.002,295.417 611.602,296.85C612.202,298.283 613.019,299.533 614.052,300.6C615.086,301.667 616.319,302.5 617.752,303.1C619.186,303.7 620.736,304 622.402,304C624.002,304 625.519,303.7 626.952,303.1C628.386,302.5 629.619,301.667 630.652,300.6C631.686,299.533 632.519,298.3 633.152,296.9C633.786,295.5 634.102,294 634.102,292.4C634.102,290.8 633.786,289.283 633.152,287.85C632.519,286.417 631.686,285.167 630.652,284.1C629.619,283.033 628.386,282.2 626.952,281.6C625.519,281 624.002,280.7 622.402,280.7C620.736,280.7 619.186,281 617.752,281.6C616.319,282.2 615.086,283.033 614.052,284.1C613.019,285.167 612.202,286.383 611.602,287.75C611.002,289.117 610.702,290.6 610.702,292.2ZM633.502,266.7L651.702,266.7L651.702,318L633.502,318L633.502,312.3C629.636,317.167 624.402,319.6 617.802,319.6C614.069,319.6 610.636,318.917 607.502,317.55C604.369,316.183 601.636,314.267 599.302,311.8C596.969,309.333 595.152,306.433 593.852,303.1C592.552,299.767 591.902,296.133 591.902,292.2C591.902,288.533 592.536,285.05 593.802,281.75C595.069,278.45 596.836,275.567 599.102,273.1C601.369,270.633 604.069,268.683 607.202,267.25C610.336,265.817 613.802,265.1 617.602,265.1C624.002,265.1 629.302,267.333 633.502,271.8L633.502,266.7Z" style="fill:rgb(255,148,20);fill-rule:nonzero;"/>
        <path d="M682.102,235L682.102,285.2L701.102,266.7L725.902,266.7L700.202,290.4L727.402,318L702.002,318L682.102,297.1L682.102,318L664.002,318L664.002,235L682.102,235Z" style="fill:rgb(255,148,20);fill-rule:nonzero;"/>
        <path d="M747.502,292.2C747.502,293.867 747.802,295.417 748.402,296.85C749.002,298.283 749.819,299.533 750.852,300.6C751.886,301.667 753.119,302.5 754.552,303.1C755.986,303.7 757.536,304 759.202,304C760.802,304 762.319,303.7 763.752,303.1C765.186,302.5 766.419,301.667 767.452,300.6C768.486,299.533 769.319,298.3 769.952,296.9C770.586,295.5 770.902,294 770.902,292.4C770.902,290.8 770.586,289.283 769.952,287.85C769.319,286.417 768.486,285.167 767.452,284.1C766.419,283.033 765.186,282.2 763.752,281.6C762.319,281 760.802,280.7 759.202,280.7C757.602,280.7 756.086,281 754.652,281.6C753.219,282.2 751.986,283.033 750.952,284.1C749.919,285.167 749.086,286.383 748.452,287.75C747.819,289.117 747.502,290.6 747.502,292.2ZM770.302,235L788.502,235L788.502,318L770.302,318L770.302,312.3C766.436,317.167 761.202,319.6 754.602,319.6C750.869,319.6 747.436,318.9 744.302,317.5C741.169,316.1 738.436,314.167 736.102,311.7C733.769,309.233 731.952,306.333 730.652,303C729.352,299.667 728.702,296.067 728.702,292.2C728.702,288.533 729.319,285.05 730.552,281.75C731.786,278.45 733.536,275.567 735.802,273.1C738.069,270.633 740.786,268.683 743.952,267.25C747.119,265.817 750.602,265.1 754.402,265.1C760.802,265.1 766.102,267.333 770.302,271.8L770.302,235Z" style="fill:rgb(255,148,20);fill-rule:nonzero;"/>
        <path d="M817.602,292.2C817.602,293.867 817.902,295.417 818.502,296.85C819.102,298.283 819.919,299.533 820.952,300.6C821.986,301.667 823.219,302.5 824.652,303.1C826.086,303.7 827.636,304 829.302,304C830.902,304 832.419,303.7 833.852,303.1C835.286,302.5 836.519,301.667 837.552,300.6C838.586,299.533 839.419,298.3 840.052,296.9C840.686,295.5 841.002,294 841.002,292.4C841.002,290.8 840.686,289.283 840.052,287.85C839.419,286.417 838.586,285.167 837.552,284.1C836.519,283.033 835.286,282.2 833.852,281.6C832.419,281 830.902,280.7 829.302,280.7C827.636,280.7 826.086,281 824.652,281.6C823.219,282.2 821.986,283.033 820.952,284.1C819.919,285.167 819.102,286.383 818.502,287.75C817.902,289.117 817.602,290.6 817.602,292.2ZM840.402,266.7L858.602,266.7L858.602,318L840.402,318L840.402,312.3C836.536,317.167 831.302,319.6 824.702,319.6C820.969,319.6 817.536,318.917 814.402,317.55C811.269,316.183 808.536,314.267 806.202,311.8C803.869,309.333 802.052,306.433 800.752,303.1C799.452,299.767 798.802,296.133 798.802,292.2C798.802,288.533 799.436,285.05 800.702,281.75C801.969,278.45 803.736,275.567 806.002,273.1C808.269,270.633 810.969,268.683 814.102,267.25C817.236,265.817 820.702,265.1 824.502,265.1C830.902,265.1 836.202,267.333 840.402,271.8L840.402,266.7Z" style="fill:rgb(255,148,20);fill-rule:nonzero;"/>
        <path d="M870.902,266.7L889.002,266.7L889.002,273.2C891.469,270.2 893.969,268.183 896.502,267.15C899.036,266.117 902.002,265.6 905.402,265.6C909.002,265.6 912.086,266.183 914.652,267.35C917.219,268.517 919.402,270.167 921.202,272.3C922.669,274.033 923.669,275.967 924.202,278.1C924.736,280.233 925.002,282.667 925.002,285.4L925.002,318L906.902,318L906.902,292.1C906.902,289.567 906.719,287.517 906.352,285.95C905.986,284.383 905.336,283.133 904.402,282.2C903.602,281.4 902.702,280.833 901.702,280.5C900.702,280.167 899.636,280 898.502,280C895.436,280 893.086,280.917 891.452,282.75C889.819,284.583 889.002,287.2 889.002,290.6L889.002,318L870.902,318L870.902,266.7Z" style="fill:rgb(255,148,20);fill-rule:nonzero;"/>
        <path d="M976.002,283.3C972.869,281.167 969.702,280.1 966.502,280.1C964.769,280.1 963.152,280.4 961.652,281C960.152,281.6 958.836,282.45 957.702,283.55C956.569,284.65 955.686,285.95 955.052,287.45C954.419,288.95 954.102,290.633 954.102,292.5C954.102,294.3 954.419,295.95 955.052,297.45C955.686,298.95 956.552,300.25 957.652,301.35C958.752,302.45 960.069,303.3 961.602,303.9C963.136,304.5 964.769,304.8 966.502,304.8C969.902,304.8 973.069,303.633 976.002,301.3L976.002,316.7C971.536,318.633 967.302,319.6 963.302,319.6C959.569,319.6 956.019,318.967 952.652,317.7C949.286,316.433 946.319,314.617 943.752,312.25C941.186,309.883 939.136,307.05 937.602,303.75C936.069,300.45 935.302,296.767 935.302,292.7C935.302,288.633 936.036,284.917 937.502,281.55C938.969,278.183 940.969,275.283 943.502,272.85C946.036,270.417 949.052,268.517 952.552,267.15C956.052,265.783 959.802,265.1 963.802,265.1C968.202,265.1 972.269,266.033 976.002,267.9L976.002,283.3Z" style="fill:rgb(255,148,20);fill-rule:nonzero;"/>
        <path d="M1023.8,284.9C1023.2,282.367 1021.97,280.333 1020.1,278.8C1018.24,277.267 1015.97,276.5 1013.3,276.5C1010.5,276.5 1008.22,277.233 1006.45,278.7C1004.69,280.167 1003.57,282.233 1003.1,284.9L1023.8,284.9ZM1002.6,295.4C1002.6,303.2 1006.27,307.1 1013.6,307.1C1017.54,307.1 1020.5,305.5 1022.5,302.3L1040,302.3C1036.47,314.033 1027.64,319.9 1013.5,319.9C1009.17,319.9 1005.2,319.25 1001.6,317.95C998.002,316.65 994.919,314.8 992.352,312.4C989.786,310 987.802,307.133 986.402,303.8C985.002,300.467 984.302,296.733 984.302,292.6C984.302,288.333 984.969,284.483 986.302,281.05C987.636,277.617 989.536,274.7 992.002,272.3C994.469,269.9 997.452,268.05 1000.95,266.75C1004.45,265.45 1008.4,264.8 1012.8,264.8C1017.14,264.8 1021.04,265.45 1024.5,266.75C1027.97,268.05 1030.9,269.933 1033.3,272.4C1035.7,274.867 1037.54,277.883 1038.8,281.45C1040.07,285.017 1040.7,289.033 1040.7,293.5L1040.7,295.4L1002.6,295.4Z" style="fill:rgb(255,148,20);fill-rule:nonzero;"/>
        <path d="M460.352,446.967C460.352,441.367 461.386,436.15 463.453,431.317C465.519,426.483 468.386,422.267 472.052,418.667C475.719,415.067 480.102,412.25 485.203,410.217C490.302,408.183 495.919,407.167 502.052,407.167C508.119,407.167 513.719,408.183 518.852,410.217C523.986,412.25 528.402,415.067 532.103,418.667C535.803,422.267 538.686,426.483 540.752,431.317C542.819,436.15 543.853,441.367 543.853,446.967C543.853,452.167 543.002,457 541.303,461.467C539.603,465.933 537.152,469.9 533.953,473.367L546.752,486.767L528.752,489.567L521.852,482.467C518.919,483.8 515.803,484.85 512.502,485.617C509.203,486.383 505.719,486.767 502.052,486.767C495.919,486.767 490.302,485.75 485.203,483.717C480.102,481.683 475.719,478.867 472.052,475.267C468.386,471.667 465.519,467.45 463.453,462.617C461.386,457.783 460.352,452.567 460.352,446.967ZM480.852,446.967C480.852,449.967 481.419,452.733 482.552,455.267C483.686,457.8 485.219,460 487.152,461.867C489.086,463.733 491.336,465.183 493.902,466.217C496.469,467.25 499.186,467.767 502.052,467.767C503.786,467.767 505.519,467.567 507.252,467.167L496.052,455.367L514.553,453.067L519.752,458.567C522.152,455.233 523.352,451.367 523.352,446.967C523.352,443.967 522.786,441.2 521.652,438.667C520.519,436.133 518.969,433.933 517.002,432.067C515.036,430.2 512.769,428.75 510.203,427.717C507.636,426.683 504.919,426.167 502.052,426.167C499.186,426.167 496.469,426.683 493.902,427.717C491.336,428.75 489.086,430.2 487.152,432.067C485.219,433.933 483.686,436.133 482.552,438.667C481.419,441.2 480.852,443.967 480.852,446.967Z" style="fill:rgb(255,148,20);fill-rule:nonzero;"/>
        <path d="M572.652,433.367L572.652,462.267C572.652,468.6 575.719,471.767 581.853,471.767C587.986,471.767 591.053,468.6 591.053,462.267L591.053,433.367L609.152,433.367L609.152,465.767C609.152,472.7 606.869,477.9 602.303,481.367C597.736,484.833 590.919,486.567 581.853,486.567C572.786,486.567 565.969,484.833 561.402,481.367C556.836,477.9 554.553,472.7 554.553,465.767L554.553,433.367L572.652,433.367Z" style="fill:rgb(255,148,20);fill-rule:nonzero;"/>
        <path d="M639.552,433.367L639.552,484.667L621.453,484.667L621.453,433.367L639.552,433.367ZM620.252,413.667C620.252,412.267 620.519,410.95 621.052,409.717C621.586,408.483 622.319,407.4 623.252,406.467C624.186,405.533 625.269,404.8 626.502,404.267C627.736,403.733 629.052,403.467 630.453,403.467C631.853,403.467 633.169,403.733 634.402,404.267C635.636,404.8 636.719,405.533 637.652,406.467C638.586,407.4 639.319,408.483 639.853,409.717C640.386,410.95 640.652,412.267 640.652,413.667C640.652,415.067 640.386,416.383 639.853,417.617C639.319,418.85 638.586,419.933 637.652,420.867C636.719,421.8 635.636,422.533 634.402,423.067C633.169,423.6 631.853,423.867 630.453,423.867C629.052,423.867 627.736,423.6 626.502,423.067C625.269,422.533 624.186,421.8 623.252,420.867C622.319,419.933 621.586,418.85 621.052,417.617C620.519,416.383 620.252,415.067 620.252,413.667Z" style="fill:rgb(255,148,20);fill-rule:nonzero;"/>
        <path d="M690.652,449.967C687.519,447.833 684.353,446.767 681.152,446.767C679.419,446.767 677.802,447.067 676.302,447.667C674.802,448.267 673.486,449.117 672.353,450.217C671.219,451.317 670.336,452.617 669.703,454.117C669.069,455.617 668.752,457.3 668.752,459.167C668.752,460.967 669.069,462.617 669.703,464.117C670.336,465.617 671.203,466.917 672.302,468.017C673.402,469.117 674.719,469.967 676.252,470.567C677.786,471.167 679.419,471.467 681.152,471.467C684.552,471.467 687.719,470.3 690.652,467.967L690.652,483.367C686.186,485.3 681.953,486.267 677.953,486.267C674.219,486.267 670.669,485.633 667.302,484.367C663.936,483.1 660.969,481.283 658.402,478.917C655.836,476.55 653.786,473.717 652.252,470.417C650.719,467.117 649.953,463.433 649.953,459.367C649.953,455.3 650.686,451.583 652.152,448.217C653.619,444.85 655.619,441.95 658.152,439.517C660.686,437.083 663.703,435.183 667.203,433.817C670.703,432.45 674.453,431.767 678.453,431.767C682.853,431.767 686.919,432.7 690.652,434.567L690.652,449.967Z" style="fill:rgb(255,148,20);fill-rule:nonzero;"/>
        <path d="M721.552,401.667L721.552,451.867L740.552,433.367L765.353,433.367L739.652,457.067L766.853,484.667L741.453,484.667L721.552,463.767L721.552,484.667L703.453,484.667L703.453,401.667L721.552,401.667Z" style="fill:rgb(255,148,20);fill-rule:nonzero;"/>
        <path d="M774.952,484.667L774.952,409.267L794.552,409.267L830.752,455.367L830.752,409.267L850.252,409.267L850.252,484.667L830.752,484.667L794.552,438.567L794.552,484.667L774.952,484.667Z" style="fill:rgb(255,148,20);fill-rule:nonzero;"/>
        <path d="M882.252,458.867C882.252,460.533 882.552,462.083 883.152,463.517C883.752,464.95 884.569,466.2 885.602,467.267C886.636,468.333 887.869,469.167 889.302,469.767C890.736,470.367 892.286,470.667 893.952,470.667C895.552,470.667 897.069,470.367 898.502,469.767C899.936,469.167 901.169,468.333 902.202,467.267C903.236,466.2 904.069,464.967 904.702,463.567C905.336,462.167 905.652,460.667 905.652,459.067C905.652,457.467 905.336,455.95 904.702,454.517C904.069,453.083 903.236,451.833 902.202,450.767C901.169,449.7 899.936,448.867 898.502,448.267C897.069,447.667 895.552,447.367 893.952,447.367C892.286,447.367 890.736,447.667 889.302,448.267C887.869,448.867 886.636,449.7 885.602,450.767C884.569,451.833 883.752,453.05 883.152,454.417C882.552,455.783 882.252,457.267 882.252,458.867ZM905.052,433.367L923.252,433.367L923.252,484.667L905.052,484.667L905.052,478.967C901.186,483.833 895.952,486.267 889.352,486.267C885.619,486.267 882.186,485.583 879.052,484.217C875.919,482.85 873.186,480.933 870.852,478.467C868.519,476 866.702,473.1 865.402,469.767C864.102,466.433 863.452,462.8 863.452,458.867C863.452,455.2 864.086,451.717 865.352,448.417C866.619,445.117 868.386,442.233 870.652,439.767C872.919,437.3 875.619,435.35 878.752,433.917C881.886,432.483 885.352,431.767 889.152,431.767C895.552,431.767 900.852,434 905.052,438.467L905.052,433.367Z" style="fill:rgb(255,148,20);fill-rule:nonzero;"/>
        <path d="M950.752,433.367L962.952,459.667L975.352,433.367L995.552,433.367L968.852,484.667L956.752,484.667L930.352,433.367L950.752,433.367Z" style="fill:rgb(255,148,20);fill-rule:nonzero;"/>
    </g>
    <defs>
        <radialGradient id="_Radial1" cx="0" cy="0" r="1" gradientUnits="userSpaceOnUse" gradientTransform="matrix(1574.88,-779.72,-779.72,-1574.88,0,772)"><stop offset="0" style="stop-color:rgb(48,35,174);stop-opacity:1"/><stop offset="1" style="stop-color:rgb(200,109,215);stop-opacity:1"/></radialGradient>
    </defs>
</svg>
